<svg width="14" height="14" viewBox="0 0 14 14" fill="none" xmlns="http://www.w3.org/2000/svg">
<path d="M11.6876 9.83325C13.176 8.505 13.9985 7 13.9985 7C13.9985 7 11.3735 2.1875 6.9985 2.1875C6.15814 2.19039 5.3273 2.3655 4.55725 2.702L5.231 3.37662C5.79751 3.17026 6.39558 3.06397 6.9985 3.0625C8.8535 3.0625 10.3926 4.0845 11.5205 5.21237C12.0633 5.7581 12.5499 6.35699 12.973 7C12.9223 7.07612 12.8663 7.16013 12.8024 7.252C12.5093 7.672 12.0761 8.232 11.5205 8.78763C11.3761 8.932 11.2256 9.07463 11.0681 9.21288L11.6876 9.83325Z" fill="#999999"/>
<path d="M9.88689 8.02906C10.0822 7.48293 10.1183 6.89257 9.99117 6.32668C9.86402 5.7608 9.57879 5.24265 9.16868 4.83253C8.75856 4.42241 8.24041 4.13719 7.67453 4.01004C7.10864 3.88289 6.51828 3.91906 5.97214 4.11432L6.69227 4.83444C7.02854 4.78631 7.3714 4.81715 7.69368 4.92453C8.01596 5.03191 8.30881 5.21287 8.54901 5.45308C8.78921 5.69328 8.97017 5.98612 9.07755 6.3084C9.18493 6.63068 9.21577 6.97354 9.16764 7.30982L9.88689 8.02906ZM7.31177 9.16569L8.03102 9.88494C7.48488 10.0802 6.89452 10.1164 6.32864 9.98921C5.76275 9.86207 5.2446 9.57684 4.83449 9.16672C4.42437 8.75661 4.13914 8.23846 4.01199 7.67257C3.88485 7.10669 3.92101 6.51633 4.11627 5.97019L4.83639 6.69032C4.78826 7.02659 4.81911 7.36945 4.92649 7.69173C5.03387 8.01401 5.21483 8.30685 5.45503 8.54706C5.69523 8.78726 5.98808 8.96822 6.31036 9.0756C6.63264 9.18298 6.9755 9.21382 7.31177 9.16569V9.16569Z" fill="#999999"/>
<path d="M2.93125 4.78552C2.77375 4.92552 2.62238 5.06727 2.478 5.21164C1.93519 5.75737 1.44858 6.35625 1.0255 6.99927L1.19612 7.25127C1.48925 7.67127 1.92238 8.23127 2.478 8.78689C3.60588 9.91477 5.14588 10.9368 7 10.9368C7.6265 10.9368 8.21625 10.8204 8.7675 10.6218L9.44125 11.2973C8.6712 11.6337 7.84035 11.8088 7 11.8118C2.625 11.8118 0 6.99927 0 6.99927C0 6.99927 0.821625 5.49339 2.31088 4.16602L2.93037 4.78639L2.93125 4.78552Z" fill="#999999"/>
<path fill-rule="evenodd" clip-rule="evenodd" d="M11.9401 12.5599L1.44006 2.05993L2.05956 1.44043L12.5596 11.9404L11.9401 12.5599Z" fill="#999999"/>
</svg>
